<svg xmlns="http://www.w3.org/2000/svg" viewBox="0 0 32 32">
  <defs>
    <linearGradient id="g" x1="0%" y1="0%" x2="100%" y2="100%">
      <stop offset="0%" stop-color="#F59E0B"/>
      <stop offset="100%" stop-color="#D97706"/>
    </linearGradient>
  </defs>
  <!-- Book body -->
  <path d="M4 6C4 4.9 4.9 4 6 4h8c1.1 0 2 .9 2 2v18c-.7-.5-1.3-.8-2-.8H6c-1.1 0-2-.9-2-2V6z" fill="#1A1A1A" stroke="url(#g)" stroke-width="1.5"/>
  <path d="M28 6c0-1.1-.9-2-2-2h-8c-1.1 0-2 .9-2 2v18c.7-.5 1.3-.8 2-.8h8c1.1 0 2-.9 2-2V6z" fill="#1A1A1A" stroke="url(#g)" stroke-width="1.5"/>
  <!-- Book spine curve at bottom -->
  <path d="M14 24c.7-.5 1.3-.8 2-.8.7 0 1.3.3 2 .8" fill="none" stroke="url(#g)" stroke-width="1.5" stroke-linecap="round"/>
  <!-- Left page lines -->
  <line x1="7" y1="9" x2="13" y2="9" stroke="#F59E0B" stroke-width="1.2" stroke-linecap="round" opacity="0.5"/>
  <line x1="7" y1="12" x2="12" y2="12" stroke="#F59E0B" stroke-width="1.2" stroke-linecap="round" opacity="0.35"/>
  <line x1="7" y1="15" x2="13" y2="15" stroke="#F59E0B" stroke-width="1.2" stroke-linecap="round" opacity="0.5"/>
  <line x1="7" y1="18" x2="11" y2="18" stroke="#F59E0B" stroke-width="1.2" stroke-linecap="round" opacity="0.35"/>
  <!-- Right page: code symbol (contained within book) -->
  <path d="M21 10l-2 3.5 2 3.5" fill="none" stroke="url(#g)" stroke-width="1.3" stroke-linecap="round" stroke-linejoin="round"/>
  <path d="M24 10l2 3.5-2 3.5" fill="none" stroke="url(#g)" stroke-width="1.3" stroke-linecap="round" stroke-linejoin="round"/>
  <line x1="23.5" y1="9.5" x2="21.5" y2="17.5" stroke="url(#g)" stroke-width="1" stroke-linecap="round" opacity="0.7"/>
</svg>
